<svg xmlns="http://www.w3.org/2000/svg" width="512" height="512" viewBox="0 0 512 512">
  <rect width="512" height="512" rx="96" fill="#0b0f14"/>
  <g fill="#e6edf3">
    <path d="M256 96c-66.274 0-120 53.726-120 120v24c0 66.274 53.726 120 120 120s120-53.726 120-120v-24c0-66.274-53.726-120-120-120zm0 48c39.764 0 72 32.236 72 72v24c0 39.764-32.236 72-72 72s-72-32.236-72-72v-24c0-39.764 32.236-72 72-72z"/>
    <path d="M128 392c0-44.183 35.817-80 80-80h96c44.183 0 80 35.817 80 80v24H128v-24zm48 0v0h160v-0c0-17.673-14.327-32-32-32h-96c-17.673 0-32 14.327-32 32z"/>
  </g>
</svg>

